<svg width="199" height="27" viewBox="0 0 199 27" fill="none" xmlns="http://www.w3.org/2000/svg">
<path d="M146.786 5.0918V7.27471H137.542V11.6405H146.786V13.8234H137.542V18.3178H146.786V20.5007H135.359V5.0918H146.786Z" fill="#F0F4F8"/>
<path d="M99.1467 5.0918L92.5983 14.6579V20.5007H90.4155V14.6579L83.9956 5.0918H86.3709L91.5067 12.6652L96.7714 5.0918H99.1467Z" fill="#F0F4F8"/>
<path d="M68.7185 5.0918V18.3178H77.9632V20.5007H66.5356V5.0918H68.7185Z" fill="#F0F4F8"/>
<path d="M122.122 5.09324V7.23742H112.729C112.365 7.23742 111.753 7.49136 111.465 7.71863C109.829 9.00863 110.601 11.6286 112.667 11.8188C114.363 11.9746 116.274 11.7121 117.993 11.8232C119.71 11.9343 121.303 13.144 121.86 14.7749C122.811 17.5606 120.957 20.4184 118.06 20.6983L108.435 20.6971V18.5529H117.927C118.479 18.5529 119.264 18.0063 119.563 17.5543C120.601 15.9881 119.523 14.0804 117.698 13.9661C115.956 13.8569 114.068 14.096 112.335 13.9671C110.76 13.85 109.282 12.7063 108.683 11.262C107.505 8.42267 109.451 5.32845 112.464 5.09229L122.122 5.09355L122.122 5.09324Z" fill="#F0F4F8"/>
<path d="M42.8864 5.09155V13.8267L51.6835 5.09155H54.2791L47.9444 11.5727L54.8018 20.5005H52.241L46.3852 13.0553L46.2814 13.0912L42.8864 16.4997V20.5005H40.7783L40.7261 20.4481V5.09155H42.8864Z" fill="#F0F4F8"/>
<path d="M168.999 5.0918C170.22 5.20861 171.497 6.06628 172.148 7.07822C173.888 9.78266 172.224 13.3546 169.058 13.7984L172.85 20.6445H170.336L166.624 13.8577H161.396V20.6445H159.241V5.0918H168.999ZM161.396 11.7154H168.68C169.775 11.7154 170.743 10.4753 170.736 9.43667C170.729 8.35235 169.722 7.19376 168.6 7.19376H161.396V11.7154Z" fill="#F0F4F8"/>
<path d="M182.732 20.5756L189.505 5.0918H192.092L198.734 20.5756H196.375L190.779 7.45849L185.091 20.5756H182.732Z" fill="#F0F4F8"/>
<path d="M13.3454 7.00071C12.5299 7.40367 11.7678 7.86068 11.0693 8.36626L8.98877 5.63721C10.4371 5.78909 11.9244 6.24746 13.3454 7.00071Z" fill="#F0F4F8"/>
<path d="M10.7118 8.63412C10.4621 8.82637 10.2213 9.02477 9.99004 9.23001L6.83545 5.64168C7.38071 5.57874 7.94103 5.56437 8.50887 5.59789L10.7118 8.63412Z" fill="#F0F4F8" fill-opacity="0.93"/>
<path d="M9.58665 9.6014C9.36156 9.81759 9.14674 10.0399 8.94218 10.2678L4.94336 6.0808C5.35658 5.93165 5.78486 5.81603 6.22476 5.73462L9.58665 9.6014Z" fill="#F0F4F8" fill-opacity="0.84"/>
<path d="M8.58106 10.6927C8.41413 10.8966 8.25609 11.1059 8.10558 11.3187L3.23584 6.95384C3.59844 6.70481 3.98087 6.48999 4.3811 6.31006L8.58106 10.6927Z" fill="#F0F4F8" fill-opacity="0.73"/>
<path d="M7.80998 11.7568C7.67589 11.9675 7.55069 12.1824 7.4337 12.3999L1.71631 8.35183C1.85929 8.176 2.01186 8.00565 2.17332 7.84146C2.32109 7.69163 2.47434 7.54933 2.63238 7.41455L7.80998 11.7568Z" fill="#F0F4F8" fill-opacity="0.67"/>
<path d="M7.20372 12.8555C7.09084 13.0922 6.9889 13.3316 6.89722 13.5752L0.635254 10.1593C0.780977 9.81035 0.952697 9.47306 1.1511 9.15015L7.20372 12.8555Z" fill="#F0F4F8" fill-opacity="0.6"/>
<path d="M6.73751 14.0351C6.67867 14.2205 6.62531 14.4066 6.57879 14.5947L0.0493164 12.4753C0.101311 11.9882 0.192987 11.512 0.323658 11.0522L6.73751 14.0351Z" fill="#F0F4F8" fill-opacity="0.53"/>
<path d="M6.46243 15.137C6.43643 15.2725 6.41454 15.4087 6.39606 15.5462L0.0916753 14.8511C0.0389962 14.4645 0.00820973 14.0794 0 13.699L6.46243 15.137Z" fill="#F0F4F8" fill-opacity="0.46"/>
<path d="M6.32851 16.217C6.32236 16.3101 6.31757 16.4038 6.31483 16.4975C6.31346 16.5516 6.31209 16.6056 6.31209 16.6597L0.638487 17.1016C0.542706 16.8287 0.457188 16.555 0.383301 16.2814L6.32851 16.217Z" fill="#F0F4F8" fill-opacity="0.39"/>
<path d="M6.35469 17.6507L1.51027 19.0429C1.37344 18.7945 1.24551 18.5435 1.12646 18.291L6.32528 17.26C6.33212 17.3907 6.3417 17.5207 6.35469 17.6507Z" fill="#F0F4F8" fill-opacity="0.32"/>
<path d="M6.5506 18.837L2.5552 20.6589C2.46011 20.533 2.36775 20.4057 2.27881 20.2778L6.46577 18.4368C6.49108 18.5709 6.51913 18.7043 6.5506 18.837Z" fill="#F0F4F8" fill-opacity="0.25"/>
<path d="M6.90978 20.0099L3.8626 22.1663C3.73604 22.0398 3.61289 21.9111 3.49316 21.7811L6.76679 19.6035C6.81126 19.7397 6.85847 19.8751 6.90978 20.0099Z" fill="#F0F4F8" fill-opacity="0.18"/>
<path d="M7.45339 21.1996L4.907 23.1166C4.8379 23.0598 4.76812 23.001 4.69971 22.9421L7.34461 20.991C7.38018 21.0607 7.41576 21.1305 7.45339 21.1996Z" fill="#F0F4F8" fill-opacity="0.11"/>
<path d="M8.24576 22.4668L6.37804 24.1819C6.33084 24.1532 6.28431 24.1231 6.23779 24.093L8.16913 22.3594C8.19376 22.3956 8.21976 22.4312 8.24576 22.4668Z" fill="#F0F4F8" fill-opacity="0.03"/>
<path d="M7.66071 16.3597C8.41744 16.8645 9.19429 17.296 9.98139 17.6482L8.6582 20.8145C8.06557 19.4842 7.71887 17.967 7.66071 16.3597Z" fill="#F0F4F8"/>
<path d="M10.392 17.8251C10.6834 17.9452 10.9756 18.0545 11.269 18.1522L9.73868 22.6783C9.41154 22.2376 9.11894 21.7595 8.86405 21.251L10.392 17.8251Z" fill="#F0F4F8" fill-opacity="0.93"/>
<path d="M11.7927 18.3154C12.0925 18.4023 12.3924 18.4771 12.692 18.5404L11.0654 24.0969C10.7296 23.8136 10.4154 23.5006 10.1249 23.1603L11.7927 18.3154Z" fill="#F0F4F8" fill-opacity="0.84"/>
<path d="M13.2405 18.642C13.5006 18.6846 13.7609 18.7168 14.0204 18.7408L12.6752 25.1405C12.2782 24.951 11.901 24.7272 11.545 24.4706L13.2405 18.642Z" fill="#F0F4F8" fill-opacity="0.73"/>
<path d="M14.5496 18.776C14.7991 18.7867 15.0478 18.7877 15.2947 18.7803L14.6476 25.7557C14.4239 25.7198 14.2001 25.6729 13.9771 25.6151C13.7735 25.5621 13.5736 25.5005 13.3779 25.431L14.5496 18.776Z" fill="#F0F4F8" fill-opacity="0.67"/>
<path d="M15.8016 18.7509C16.0631 18.7303 16.3214 18.6988 16.5782 18.6564L16.7509 25.7874C16.3758 25.8357 15.9979 25.8556 15.619 25.8453L15.8016 18.7509Z" fill="#F0F4F8" fill-opacity="0.6"/>
<path d="M17.0556 18.5653C17.2455 18.5236 17.4334 18.4767 17.6196 18.4229L19.0488 25.1374C18.6009 25.3359 18.1427 25.4946 17.6792 25.6113L17.0556 18.5653Z" fill="#F0F4F8" fill-opacity="0.53"/>
<path d="M18.148 18.2529C18.2783 18.2077 18.4071 18.1586 18.5355 18.1059L21.0857 23.9132C20.7773 24.1521 20.4591 24.3713 20.1338 24.5686L18.148 18.2529Z" fill="#F0F4F8" fill-opacity="0.46"/>
<path d="M19.1524 17.8286C19.2361 17.7874 19.3196 17.7447 19.4022 17.7002C19.4496 17.6744 19.4971 17.6485 19.5439 17.6215L22.7635 22.314C22.575 22.5334 22.3807 22.7443 22.1807 22.9451L19.1524 17.8286Z" fill="#F0F4F8" fill-opacity="0.39"/>
<path d="M20.3804 17.0899L24.0084 20.5892C23.8617 20.8318 23.7082 21.0682 23.5491 21.2975L20.0568 17.3107C20.1666 17.2394 20.2744 17.1661 20.3804 17.0899Z" fill="#F0F4F8" fill-opacity="0.32"/>
<path d="M21.3079 16.326L24.8834 18.8752C24.8219 19.0205 24.7579 19.1641 24.6915 19.3051L21.0037 16.5996C21.1072 16.5106 21.2087 16.4196 21.3079 16.326Z" fill="#F0F4F8" fill-opacity="0.25"/>
<path d="M22.1451 15.4292L25.5362 16.99C25.4899 17.1629 25.4401 17.3338 25.3873 17.5025L21.8646 15.7563C21.9603 15.6497 22.054 15.5411 22.1451 15.4292Z" fill="#F0F4F8" fill-opacity="0.18"/>
<path d="M22.9059 14.3647L25.8393 15.6114C25.8246 15.6997 25.8086 15.7895 25.7918 15.8782L22.7796 14.5632C22.8222 14.4975 22.8649 14.4318 22.9059 14.3647Z" fill="#F0F4F8" fill-opacity="0.11"/>
<path d="M23.6061 13.0426L26.0253 13.8025C26.0241 13.8577 26.0213 13.9131 26.0185 13.9684L23.5514 13.1626C23.5705 13.1232 23.5883 13.0829 23.6061 13.0426Z" fill="#F0F4F8" fill-opacity="0.03"/>
<path d="M18.6077 16.6032C18.6664 15.6954 18.6517 14.8069 18.5631 13.9492L21.9668 13.512C21.1111 14.6903 19.9705 15.7492 18.6077 16.6032Z" fill="#F0F4F8"/>
<path d="M18.5104 13.5054C18.4688 13.193 18.4174 12.8853 18.3552 12.5824L23.0401 11.6446C22.822 12.1483 22.5543 12.6407 22.2413 13.1157L18.5104 13.5054Z" fill="#F0F4F8" fill-opacity="0.93"/>
<path d="M18.2364 12.0475C18.1617 11.7445 18.0765 11.4473 17.9815 11.1562L23.6069 9.78663C23.5295 10.2191 23.4155 10.6478 23.266 11.0694L18.2364 12.0475Z" fill="#F0F4F8" fill-opacity="0.84"/>
<path d="M17.7966 10.6299C17.7035 10.3834 17.6012 10.1419 17.4922 9.90515L23.7071 7.87025C23.7415 8.30878 23.7363 8.74739 23.692 9.18396L17.7966 10.6299Z" fill="#F0F4F8" fill-opacity="0.73"/>
<path d="M17.2556 9.43158C17.1402 9.2101 17.0168 8.99426 16.8868 8.78417L23.2513 5.8568C23.3321 6.06854 23.4033 6.28584 23.4648 6.50777C23.5206 6.71066 23.5673 6.91453 23.605 7.11878L17.2556 9.43158Z" fill="#F0F4F8" fill-opacity="0.67"/>
<path d="M16.6089 8.3585C16.4604 8.14239 16.304 7.93438 16.1389 7.73321L22.2281 4.01815C22.4574 4.31881 22.6637 4.63616 22.8441 4.96944L16.6089 8.3585Z" fill="#F0F4F8" fill-opacity="0.6"/>
<path d="M15.8192 7.36394C15.6881 7.22029 15.5536 7.08103 15.414 6.94667L20.5142 2.35172C20.9101 2.64031 21.2766 2.95778 21.6094 3.30082L15.8192 7.36394Z" fill="#F0F4F8" fill-opacity="0.53"/>
<path d="M15.0053 6.57486C14.901 6.48461 14.794 6.39758 14.6842 6.31283L18.4383 1.20061C18.7994 1.34826 19.1484 1.51418 19.4819 1.69727L15.0053 6.57486Z" fill="#F0F4F8" fill-opacity="0.46"/>
<path d="M14.1343 5.91946C14.0568 5.8676 13.9781 5.81659 13.8982 5.76736C13.8521 5.73915 13.806 5.71094 13.7592 5.68392L16.2133 0.54945C16.4975 0.602989 16.7773 0.665757 17.0512 0.738597L14.1343 5.91946Z" fill="#F0F4F8" fill-opacity="0.39"/>
<path d="M12.882 5.22381L14.0986 0.332302C14.382 0.337977 14.6634 0.352722 14.9416 0.375854L13.2351 5.39366C13.1185 5.33425 13.0011 5.27755 12.882 5.22381Z" fill="#F0F4F8" fill-opacity="0.32"/>
<path d="M11.7558 4.80259L12.1757 0.431537C12.3323 0.412123 12.4886 0.395762 12.6439 0.382707L12.1448 4.92924C12.016 4.88411 11.8865 4.8417 11.7558 4.80259Z" fill="#F0F4F8" fill-opacity="0.25"/>
<path d="M10.5604 4.52619L10.2164 0.809049C10.3893 0.762722 10.5623 0.720384 10.7347 0.681692L10.9838 4.60556C10.8437 4.57599 10.7027 4.54915 10.5604 4.52619Z" fill="#F0F4F8" fill-opacity="0.18"/>
<path d="M9.25886 4.40079L8.8719 1.23707C8.95563 1.20562 9.04147 1.1746 9.12664 1.14477L9.49396 4.41091C9.41573 4.40683 9.33751 4.40275 9.25886 4.40079Z" fill="#F0F4F8" fill-opacity="0.11"/>
<path d="M7.76481 4.45477L7.21331 1.97971C7.2618 1.9532 7.31113 1.92796 7.36046 1.90272L7.89615 4.44212C7.85243 4.44532 7.80862 4.45005 7.76481 4.45477Z" fill="#F0F4F8" fill-opacity="0.03"/>
</svg>
