<svg width="28" height="28" viewBox="0 0 28 28" fill="none" xmlns="http://www.w3.org/2000/svg">
<path d="M13.9004 7.29228C13.051 7.712 12.2571 8.18802 11.5296 8.71463L9.36255 5.87207C10.8711 6.03027 12.4203 6.50771 13.9004 7.29228Z" fill="#001F3F"/>
<path d="M11.157 8.99307C10.8969 9.19331 10.646 9.39997 10.4052 9.61375L7.11938 5.87616C7.68733 5.8106 8.27094 5.79564 8.8624 5.83056L11.157 8.99307Z" fill="#001F3F" fill-opacity="0.93"/>
<path d="M9.98509 10.0005C9.75065 10.2257 9.52689 10.4573 9.31382 10.6946L5.14868 6.33348C5.57909 6.17813 6.02518 6.0577 6.48338 5.9729L9.98509 10.0005Z" fill="#001F3F" fill-opacity="0.84"/>
<path d="M8.9357 11.1374C8.76183 11.3498 8.59722 11.5678 8.44044 11.7894L3.36816 7.24307C3.74584 6.98368 4.14418 6.75992 4.56106 6.57251L8.9357 11.1374Z" fill="#001F3F" fill-opacity="0.73"/>
<path d="M8.13472 12.246C7.99505 12.4655 7.86464 12.6892 7.74279 12.9159L1.7876 8.69941C1.93653 8.51627 2.09544 8.33883 2.26361 8.16781C2.41754 8.01175 2.57716 7.86353 2.74177 7.72314L8.13472 12.246Z" fill="#001F3F" fill-opacity="0.67"/>
<path d="M7.50499 13.39C7.38742 13.6365 7.28124 13.8859 7.18575 14.1396L0.66333 10.5816C0.815114 10.2182 0.993976 9.86686 1.20063 9.53052L7.50499 13.39Z" fill="#001F3F" fill-opacity="0.6"/>
<path d="M7.0191 14.6191C6.95782 14.8123 6.90224 15.0061 6.85378 15.202L0.0527344 12.9944C0.106892 12.487 0.20238 11.9911 0.338487 11.5122L7.0191 14.6191Z" fill="#001F3F" fill-opacity="0.53"/>
<path d="M6.73121 15.7664C6.70413 15.9075 6.68133 16.0493 6.66209 16.1926L0.0954883 15.4686C0.0406182 15.066 0.00855119 14.6648 0 14.2686L6.73121 15.7664Z" fill="#001F3F" fill-opacity="0.46"/>
<path d="M6.59239 16.8916C6.58598 16.9885 6.58099 17.0861 6.57814 17.1838C6.57671 17.2401 6.57529 17.2964 6.57529 17.3527L0.665702 17.813C0.565938 17.5287 0.476863 17.2436 0.399902 16.9586L6.59239 16.8916Z" fill="#001F3F" fill-opacity="0.39"/>
<path d="M6.61805 18.3849L1.57213 19.8351C1.42961 19.5764 1.29636 19.3149 1.17236 19.0519L6.5874 17.978C6.59453 18.1141 6.60451 18.2495 6.61805 18.3849Z" fill="#001F3F" fill-opacity="0.32"/>
<path d="M6.82447 19.6202L2.66289 21.5179C2.56384 21.3868 2.46764 21.2542 2.375 21.121L6.73611 19.2034C6.76247 19.343 6.79169 19.482 6.82447 19.6202Z" fill="#001F3F" fill-opacity="0.25"/>
<path d="M7.19788 20.842L4.02396 23.0881C3.89213 22.9563 3.76387 22.8223 3.63916 22.6869L7.04895 20.4187C7.09527 20.5605 7.14444 20.7016 7.19788 20.842Z" fill="#001F3F" fill-opacity="0.18"/>
<path d="M7.76225 22.0816L5.10996 24.0783C5.03799 24.0192 4.9653 23.9579 4.89404 23.8966L7.64895 21.8643C7.68601 21.9369 7.72306 22.0096 7.76225 22.0816Z" fill="#001F3F" fill-opacity="0.11"/>
<path d="M8.58879 23.4014L6.6434 25.1879C6.59423 25.158 6.54577 25.1266 6.49731 25.0953L8.50898 23.2896C8.53464 23.3273 8.56171 23.3644 8.58879 23.4014Z" fill="#001F3F" fill-opacity="0.03"/>
<path d="M7.98006 17.0399C8.76826 17.5657 9.57742 18.0152 10.3973 18.382L9.01904 21.6799C8.40176 20.2944 8.04064 18.714 7.98006 17.0399Z" fill="#001F3F"/>
<path d="M10.8245 18.5665C11.128 18.6916 11.4323 18.8055 11.7379 18.9072L10.144 23.6216C9.80322 23.1625 9.49845 22.6646 9.23296 22.1349L10.8245 18.5665Z" fill="#001F3F" fill-opacity="0.93"/>
<path d="M12.2834 19.0773C12.5957 19.1677 12.9081 19.2457 13.2201 19.3116L11.5259 25.0993C11.1762 24.8042 10.8488 24.4781 10.5463 24.1237L12.2834 19.0773Z" fill="#001F3F" fill-opacity="0.84"/>
<path d="M13.7924 19.4176C14.0632 19.462 14.3344 19.4956 14.6047 19.5205L13.2035 26.1865C12.79 25.9891 12.3971 25.756 12.0264 25.4887L13.7924 19.4176Z" fill="#001F3F" fill-opacity="0.73"/>
<path d="M15.1535 19.557C15.4134 19.5682 15.6724 19.5693 15.9296 19.5615L15.2556 26.8271C15.0226 26.7896 14.7894 26.7407 14.5572 26.6806C14.3451 26.6253 14.137 26.5612 13.9331 26.4888L15.1535 19.557Z" fill="#001F3F" fill-opacity="0.67"/>
<path d="M16.4594 19.5305C16.7317 19.509 17.0008 19.4763 17.2682 19.4321L17.4481 26.8597C17.0575 26.91 16.6638 26.9307 16.2692 26.9199L16.4594 19.5305Z" fill="#001F3F" fill-opacity="0.6"/>
<path d="M17.7671 19.3373C17.965 19.2938 18.1606 19.245 18.3545 19.189L19.8432 26.1827C19.3767 26.3895 18.8995 26.5548 18.4167 26.6764L17.7671 19.3373Z" fill="#001F3F" fill-opacity="0.53"/>
<path d="M18.9038 19.0125C19.0395 18.9654 19.1737 18.9142 19.3074 18.8593L21.9637 24.9081C21.6424 25.1569 21.311 25.3853 20.9722 25.5908L18.9038 19.0125Z" fill="#001F3F" fill-opacity="0.46"/>
<path d="M19.9475 18.5703C20.0346 18.5274 20.1216 18.4829 20.2076 18.4365C20.2571 18.4096 20.3065 18.3827 20.3553 18.3545L23.7087 23.2422C23.5124 23.4708 23.3101 23.6904 23.1017 23.8996L19.9475 18.5703Z" fill="#001F3F" fill-opacity="0.39"/>
<path d="M21.2289 17.8009L25.0077 21.4457C24.855 21.6985 24.6951 21.9447 24.5294 22.1835L20.8918 18.0309C21.0062 17.9567 21.1184 17.8803 21.2289 17.8009Z" fill="#001F3F" fill-opacity="0.32"/>
<path d="M22.1944 17.0046L25.9186 19.6598C25.8546 19.8112 25.7879 19.9607 25.7188 20.1076L21.8776 17.2896C21.9853 17.1969 22.0911 17.1021 22.1944 17.0046Z" fill="#001F3F" fill-opacity="0.25"/>
<path d="M23.066 16.0712L26.5981 17.6968C26.5499 17.8769 26.498 18.0549 26.4431 18.2306L22.7739 16.4118C22.8735 16.3008 22.9711 16.1876 23.066 16.0712Z" fill="#001F3F" fill-opacity="0.18"/>
<path d="M23.8569 14.9621L26.9122 16.2607C26.897 16.3526 26.8803 16.4462 26.8628 16.5385L23.7253 15.1689C23.7697 15.1004 23.8142 15.032 23.8569 14.9621Z" fill="#001F3F" fill-opacity="0.11"/>
<path d="M24.5866 13.5854L27.1064 14.3769C27.1051 14.4345 27.1021 14.4921 27.0992 14.5498L24.5296 13.7105C24.5494 13.6694 24.568 13.6274 24.5866 13.5854Z" fill="#001F3F" fill-opacity="0.03"/>
<path d="M19.3835 17.2937C19.4447 16.3483 19.4294 15.4228 19.3371 14.5294L22.8823 14.074C21.991 15.3013 20.803 16.4043 19.3835 17.2937Z" fill="#001F3F"/>
<path d="M19.2817 14.0669C19.2384 13.7415 19.1848 13.421 19.1201 13.1055L23.9998 12.1287C23.7726 12.6533 23.4938 13.1662 23.1678 13.661L19.2817 14.0669Z" fill="#001F3F" fill-opacity="0.93"/>
<path d="M18.9949 12.5487C18.9171 12.233 18.8284 11.9235 18.7295 11.6203L24.5889 10.1937C24.5082 10.6442 24.3894 11.0907 24.2338 11.5299L18.9949 12.5487Z" fill="#001F3F" fill-opacity="0.84"/>
<path d="M18.5363 11.0721C18.4394 10.8154 18.3328 10.5638 18.2193 10.3172L24.6927 8.19768C24.7285 8.65445 24.7231 9.11131 24.677 9.56603L18.5363 11.0721Z" fill="#001F3F" fill-opacity="0.73"/>
<path d="M17.9752 9.8242C17.855 9.5935 17.7264 9.36869 17.5911 9.14986L24.2202 6.10074C24.3043 6.32129 24.3786 6.54762 24.4426 6.77878C24.5008 6.99011 24.5493 7.20246 24.5886 7.4152L17.9752 9.8242Z" fill="#001F3F" fill-opacity="0.67"/>
<path d="M17.3005 8.70603C17.1458 8.48092 16.9829 8.26427 16.8109 8.05473L23.1535 4.18515C23.3923 4.49831 23.6071 4.82887 23.7951 5.17601L17.3005 8.70603Z" fill="#001F3F" fill-opacity="0.6"/>
<path d="M16.478 7.67002C16.3414 7.52039 16.2013 7.37534 16.0558 7.23539L21.3682 2.44933C21.7805 2.74991 22.1623 3.08059 22.509 3.4379L16.478 7.67002Z" fill="#001F3F" fill-opacity="0.53"/>
<path d="M15.6289 6.84804C15.5203 6.75404 15.4089 6.66339 15.2945 6.57511L19.2048 1.25027C19.5809 1.40406 19.9443 1.57688 20.2917 1.76758L15.6289 6.84804Z" fill="#001F3F" fill-opacity="0.46"/>
<path d="M14.7241 6.16534C14.6433 6.11133 14.5613 6.0582 14.4782 6.00691C14.4301 5.97753 14.3821 5.94815 14.3333 5.92L16.8895 0.571984C17.1856 0.62775 17.477 0.693128 17.7623 0.768998L14.7241 6.16534Z" fill="#001F3F" fill-opacity="0.39"/>
<path d="M13.4167 5.44112L14.6838 0.346159C14.9791 0.35207 15.2722 0.367429 15.5619 0.391523L13.7844 5.61803C13.663 5.55615 13.5407 5.49709 13.4167 5.44112Z" fill="#001F3F" fill-opacity="0.32"/>
<path d="M12.2448 5.0021L12.6822 0.449237C12.8453 0.429015 13.0081 0.411974 13.1699 0.398375L12.65 5.13401C12.5159 5.08701 12.3809 5.04283 12.2448 5.0021Z" fill="#001F3F" fill-opacity="0.25"/>
<path d="M10.9998 4.71429L10.6416 0.842546C10.8217 0.794293 11.0018 0.750193 11.1814 0.709892L11.4409 4.79696C11.2949 4.76617 11.1481 4.7382 10.9998 4.71429Z" fill="#001F3F" fill-opacity="0.18"/>
<path d="M9.64427 4.58377L9.24122 1.28846C9.32843 1.25571 9.41785 1.2234 9.50655 1.19233L9.88915 4.59432C9.80767 4.59006 9.7262 4.58581 9.64427 4.58377Z" fill="#001F3F" fill-opacity="0.11"/>
<path d="M8.08735 4.63986L7.51291 2.06185C7.56341 2.03423 7.61479 2.00795 7.66618 1.98166L8.22415 4.62668C8.17861 4.63001 8.13298 4.63493 8.08735 4.63986Z" fill="#001F3F" fill-opacity="0.03"/>
</svg>
